<svg id="Layer_1" data-name="Layer 1" xmlns="http://www.w3.org/2000/svg" xmlns:xlink="http://www.w3.org/1999/xlink" viewBox="0 0 237.88 188.59"><defs><style>.cls-1,.cls-3{fill:#fff;}.cls-2{mask:url(#mask);}.cls-3{stroke:#fff;stroke-miterlimit:10;stroke-width:4px;}</style><mask id="mask" x="0" y="0" width="435.41" height="189.59" maskUnits="userSpaceOnUse"><g transform="translate(-112.12 -84.18)"><path d="M114.64,165.25h9.88v0H172v0h9.88a2.53,2.53,0,0,0,2.53-2.53V120.31a36.14,36.14,0,0,0-36.14-36.14h0a36.13,36.13,0,0,0-36.13,36.13c0,21,0,36.58,0,42.42A2.52,2.52,0,0,0,114.64,165.25Zm7.86-44.59a25.76,25.76,0,0,1,51.51,0v8.59H122.5v-8.59Z"/><path d="M157,237.55v-12.4h4.23a2.52,2.52,0,0,0,2.53-2.53V170.51h-31v52.12a2.53,2.53,0,0,0,2.53,2.53H139v12.4h3.64v6.66c-2.27.92-6.4,3.14-6.4,5.74a6.17,6.17,0,0,0,2.52,5v8c1.61,2.31,5.82,8,7.7,10.9h3c2.69-2.69,6.63-9.13,8.24-10.9v-8a6.17,6.17,0,0,0,2.52-5c0-2.6-4.63-4.82-6.9-5.74v-6.66H157Z"/><rect class="cls-1" x="176.86" y="84.18" width="370.67" height="189.59"/></g></mask></defs><title>logo</title><path class="cls-1" d="M114.64,165.25h9.88v0H172v0h9.88a2.53,2.53,0,0,0,2.53-2.53V120.31a36.14,36.14,0,0,0-36.14-36.14h0a36.13,36.13,0,0,0-36.13,36.13c0,21,0,36.58,0,42.42A2.52,2.52,0,0,0,114.64,165.25Zm7.86-44.59a25.76,25.76,0,0,1,51.51,0v8.59H122.5v-8.59Z" transform="translate(-112.12 -84.18)"/><path class="cls-1" d="M169,236.55v-12.4h4.23a2.52,2.52,0,0,0,2.53-2.53V169.51h-31v52.12a2.53,2.53,0,0,0,2.53,2.53H151v12.4h3.64v6.66c-2.27.92-6.4,3.14-6.4,5.74a6.17,6.17,0,0,0,2.52,5v8c1.61,2.31,5.82,8,7.7,10.9h3c2.69-2.69,6.63-9.13,8.24-10.9v-8a6.17,6.17,0,0,0,2.52-5c0-2.6-4.63-4.82-6.9-5.74v-6.66H169Z" transform="translate(-112.12 -84.18)"/><g class="cls-2"><g class="cls-2"><path class="cls-1" d="M132.85,89.57h28.8v57.22l53.11-57.22h34.78l-53.3,55.54L252,220.47H217.37l-40.58-55.73-15.15,15.71v40h-28.8V89.57Z" transform="translate(-112.12 -84.18)"/></g></g><path class="cls-1" d="M245.51,170.39a22.29,22.29,0,0,1-8.14-1.46,18.82,18.82,0,0,1-6.5-4.16,19.23,19.23,0,0,1-4.27-6.39,21.19,21.19,0,0,1-1.53-8.21V150a21.89,21.89,0,0,1,1.42-7.88,20,20,0,0,1,4-6.5,18.56,18.56,0,0,1,13.94-6,19.06,19.06,0,0,1,8.47,1.75,17.23,17.23,0,0,1,5.95,4.71,19.61,19.61,0,0,1,3.5,6.79,28.08,28.08,0,0,1,1.13,8q0,0.66,0,1.39t-0.11,1.53H236.09a9.34,9.34,0,0,0,3.32,5.73,9.94,9.94,0,0,0,6.24,1.93,12.37,12.37,0,0,0,5-.95,16.88,16.88,0,0,0,4.53-3.07l6.35,5.62a19.69,19.69,0,0,1-6.72,5.37A20.83,20.83,0,0,1,245.51,170.39Zm7.15-23.51a10.81,10.81,0,0,0-2.63-6,7.28,7.28,0,0,0-5.62-2.3,7.45,7.45,0,0,0-5.66,2.26,11.35,11.35,0,0,0-2.81,6.06h16.72Z" transform="translate(-112.12 -84.18)"/><path class="cls-1" d="M281.06,181.41a18.16,18.16,0,0,1-5.4-.73,21.41,21.41,0,0,1-4.45-2l3.72-8a12.43,12.43,0,0,0,2.37,1.1,7.34,7.34,0,0,0,2.37.44,4.18,4.18,0,0,0,2.3-.55,5,5,0,0,0,1.57-2l-15.33-39.27H280L288.87,157l8.54-26.65h11.53l-15,40.08a30.4,30.4,0,0,1-2.34,5.07,14.06,14.06,0,0,1-2.74,3.39,9.2,9.2,0,0,1-3.39,1.9A14.94,14.94,0,0,1,281.06,181.41Z" transform="translate(-112.12 -84.18)"/><path class="cls-1" d="M329.24,170.24a27.4,27.4,0,0,1-16.79-5.91l4.74-7.3a26.4,26.4,0,0,0,6.39,3.5,17.28,17.28,0,0,0,6,1.17,6.19,6.19,0,0,0,3.54-.8,2.48,2.48,0,0,0,1.13-2.12v-0.15a2.1,2.1,0,0,0-.66-1.53,5.53,5.53,0,0,0-1.79-1.13,26.44,26.44,0,0,0-2.59-.91l-3.07-.95a41.25,41.25,0,0,1-4.12-1.42,14.71,14.71,0,0,1-3.76-2.19,10.69,10.69,0,0,1-2.74-3.32,10.07,10.07,0,0,1-1.06-4.82v-0.15a11.51,11.51,0,0,1,4.2-9.2,13.06,13.06,0,0,1,4.53-2.41,18.79,18.79,0,0,1,5.58-.8,25.1,25.1,0,0,1,7.56,1.2,28,28,0,0,1,7,3.32L339.09,142a35,35,0,0,0-5.69-2.66,14.89,14.89,0,0,0-4.89-1,5.08,5.08,0,0,0-3.07.77,2.33,2.33,0,0,0-1,1.93v0.15a1.91,1.91,0,0,0,.66,1.42,7.27,7.27,0,0,0,1.75,1.17,23,23,0,0,0,2.52,1.06q1.42,0.51,3,1,2,0.66,4.16,1.57a17.16,17.16,0,0,1,3.8,2.23,11,11,0,0,1,2.77,3.21,9.06,9.06,0,0,1,1.1,4.6v0.15a13,13,0,0,1-1.13,5.66,10.4,10.4,0,0,1-3.18,3.91,14.3,14.3,0,0,1-4.78,2.3A21.71,21.71,0,0,1,329.24,170.24Z" transform="translate(-112.12 -84.18)"/><line class="cls-3" x1="127.88" y1="103.82" x2="237.88" y2="103.82"/><path class="cls-1" d="M245.46,195.2h3.26a5.8,5.8,0,0,1,2.11.37,5,5,0,0,1,1.65,1,4.59,4.59,0,0,1,1.07,1.55,4.87,4.87,0,0,1,.38,1.92v0a4.92,4.92,0,0,1-.38,1.93,4.56,4.56,0,0,1-1.07,1.55,5.07,5.07,0,0,1-1.65,1,5.7,5.7,0,0,1-2.11.38h-3.26v-9.8Zm3.26,9.14a4.93,4.93,0,0,0,1.85-.33,4.14,4.14,0,0,0,1.4-.9,4,4,0,0,0,.89-1.33,4.29,4.29,0,0,0,.31-1.65v0a4.31,4.31,0,0,0-.31-1.64,4.05,4.05,0,0,0-.89-1.35,4.18,4.18,0,0,0-1.4-.91,4.85,4.85,0,0,0-1.85-.34h-2.53v8.48h2.53Z" transform="translate(-112.12 -84.18)"/><path class="cls-1" d="M256.25,197.86h0.69v2a4.07,4.07,0,0,1,.53-0.88,3.51,3.51,0,0,1,.73-0.69,3.07,3.07,0,0,1,.89-0.43,3.2,3.2,0,0,1,1-.13v0.76H260a3.05,3.05,0,0,0-1.18.23,2.81,2.81,0,0,0-1,.69,3.35,3.35,0,0,0-.68,1.12,4.3,4.3,0,0,0-.25,1.53V205h-0.69v-7.14Z" transform="translate(-112.12 -84.18)"/><path class="cls-1" d="M261.86,195.06h0.85V196h-0.85v-0.94Zm0.08,2.8h0.69V205h-0.69v-7.14Z" transform="translate(-112.12 -84.18)"/><path class="cls-1" d="M264.61,197.86h0.8l2.7,6.37,2.73-6.37h0.77l-3.21,7.2h-0.59Z" transform="translate(-112.12 -84.18)"/><path class="cls-1" d="M273.5,195.06h0.85V196H273.5v-0.94Zm0.08,2.8h0.69V205h-0.69v-7.14Z" transform="translate(-112.12 -84.18)"/><path class="cls-1" d="M277,197.86h0.69v1.33a3.32,3.32,0,0,1,1-1.06,2.71,2.71,0,0,1,1.6-.43,3.17,3.17,0,0,1,1.2.22,2.52,2.52,0,0,1,1.46,1.54,3.53,3.53,0,0,1,.19,1.18V205H282.4v-4.24a2.58,2.58,0,0,0-.59-1.77,2.12,2.12,0,0,0-1.68-.67,2.5,2.5,0,0,0-1,.19,2.42,2.42,0,0,0-.78.53,2.39,2.39,0,0,0-.53.8,2.73,2.73,0,0,0-.19,1V205H277v-7.14Z" transform="translate(-112.12 -84.18)"/><path class="cls-1" d="M288.68,207.27a5.33,5.33,0,0,1-3.28-1.11l0.41-.56a4.62,4.62,0,0,0,2.89,1,3.52,3.52,0,0,0,1.13-.17,2.35,2.35,0,0,0,1.47-1.38,3.15,3.15,0,0,0,.21-1.2v-1a4.94,4.94,0,0,1-.53.63,3.78,3.78,0,0,1-.66.52,3.2,3.2,0,0,1-.81.36,3.43,3.43,0,0,1-1,.13,3.52,3.52,0,0,1-2.36-.92,3.39,3.39,0,0,1-.78-1.06,3.19,3.19,0,0,1-.29-1.39v0a3.28,3.28,0,0,1,.29-1.4,3.35,3.35,0,0,1,.78-1.07,3.55,3.55,0,0,1,3.35-.78,3.54,3.54,0,0,1,.82.35,3.4,3.4,0,0,1,.66.51,5.19,5.19,0,0,1,.52.6v-1.43h0.69v6a3.74,3.74,0,0,1-.24,1.39,3,3,0,0,1-.67,1,3.1,3.1,0,0,1-1.13.71A4.22,4.22,0,0,1,288.68,207.27Zm-0.1-3.46a3.15,3.15,0,0,0,1.09-.2,3,3,0,0,0,.95-0.55,2.77,2.77,0,0,0,.67-0.85,2.41,2.41,0,0,0,.25-1.11v0a2.46,2.46,0,0,0-.25-1.12,2.76,2.76,0,0,0-.67-0.86,2.94,2.94,0,0,0-.95-0.55,3.26,3.26,0,0,0-1.09-.19,3,3,0,0,0-1.07.19,2.67,2.67,0,0,0-.88.54,2.51,2.51,0,0,0-.6.85,2.79,2.79,0,0,0-.22,1.13v0a2.67,2.67,0,0,0,.83,2A2.84,2.84,0,0,0,288.58,203.81Z" transform="translate(-112.12 -84.18)"/><path class="cls-1" d="M302.46,205.14a5.5,5.5,0,0,1-2.12-.39,6.54,6.54,0,0,1-1.83-1.18L299,203a6.84,6.84,0,0,0,.81.65,4.49,4.49,0,0,0,.82.45,4.56,4.56,0,0,0,.88.27,5.16,5.16,0,0,0,1,.09,3.32,3.32,0,0,0,1-.15,2.39,2.39,0,0,0,.78-0.41,1.9,1.9,0,0,0,.5-0.62,1.69,1.69,0,0,0,.18-0.78v0a1.94,1.94,0,0,0-.12-0.7,1.34,1.34,0,0,0-.43-0.56,3.17,3.17,0,0,0-.85-0.46,8.86,8.86,0,0,0-1.37-.37,9.51,9.51,0,0,1-1.51-.43,3.71,3.71,0,0,1-1-.57,2,2,0,0,1-.58-0.76,2.54,2.54,0,0,1-.18-1v0a2.2,2.2,0,0,1,.24-1,2.57,2.57,0,0,1,.66-0.82,3.09,3.09,0,0,1,1-.55,3.86,3.86,0,0,1,1.26-.2,5.21,5.21,0,0,1,1.84.29,5.53,5.53,0,0,1,1.52.9l-0.46.57a4.2,4.2,0,0,0-2.93-1.11,3.1,3.1,0,0,0-1,.15,2.42,2.42,0,0,0-.76.4,1.75,1.75,0,0,0-.48.59,1.58,1.58,0,0,0-.17.71v0a2,2,0,0,0,.12.71,1.38,1.38,0,0,0,.43.57,3.08,3.08,0,0,0,.88.47,9.9,9.9,0,0,0,1.43.39,5.65,5.65,0,0,1,2.46,1,2.13,2.13,0,0,1,.76,1.72v0a2.42,2.42,0,0,1-.25,1.08,2.54,2.54,0,0,1-.67.85,3.16,3.16,0,0,1-1,.55A4.19,4.19,0,0,1,302.46,205.14Z" transform="translate(-112.12 -84.18)"/><path class="cls-1" d="M311.09,205.17a3.45,3.45,0,0,1-1.44-.3,3.72,3.72,0,0,1-1.15-.81,3.66,3.66,0,0,1-.76-1.18,3.73,3.73,0,0,1-.28-1.43v0a3.73,3.73,0,0,1,.28-1.43,3.83,3.83,0,0,1,.76-1.19,3.61,3.61,0,0,1,1.15-.82,3.43,3.43,0,0,1,1.44-.3,3.61,3.61,0,0,1,.92.11,3.49,3.49,0,0,1,.76.29,3.73,3.73,0,0,1,.64.42,6.16,6.16,0,0,1,.54.5l-0.49.5a5.42,5.42,0,0,0-1-.83,2.51,2.51,0,0,0-1.36-.35,2.74,2.74,0,0,0-1.14.24,2.82,2.82,0,0,0-.91.65,3.07,3.07,0,0,0-.61,1,3.18,3.18,0,0,0-.22,1.2v0a3.15,3.15,0,0,0,.23,1.21,3.09,3.09,0,0,0,.63,1,2.92,2.92,0,0,0,.93.66,2.8,2.8,0,0,0,1.15.24,2.66,2.66,0,0,0,1.35-.34,4.18,4.18,0,0,0,1-.85l0.48,0.42a5.07,5.07,0,0,1-1.24,1A3.26,3.26,0,0,1,311.09,205.17Z" transform="translate(-112.12 -84.18)"/><path class="cls-1" d="M315.94,194.78h0.69v4.41a3.32,3.32,0,0,1,1-1.06,2.71,2.71,0,0,1,1.6-.43,3.16,3.16,0,0,1,1.2.22,2.55,2.55,0,0,1,.9.61,2.59,2.59,0,0,1,.56.93,3.55,3.55,0,0,1,.19,1.18V205h-0.69v-4.24a2.58,2.58,0,0,0-.59-1.77,2.13,2.13,0,0,0-1.68-.67,2.49,2.49,0,0,0-1,.19,2.42,2.42,0,0,0-.78.53,2.37,2.37,0,0,0-.53.8,2.73,2.73,0,0,0-.19,1V205h-0.69V194.78Z" transform="translate(-112.12 -84.18)"/><path class="cls-1" d="M327.69,205.17a3.51,3.51,0,0,1-1.46-.3,3.75,3.75,0,0,1-1.16-.81,3.62,3.62,0,0,1-.76-1.18,3.76,3.76,0,0,1-.27-1.43v0a3.76,3.76,0,0,1,.27-1.43,3.71,3.71,0,0,1,1.94-2,3.54,3.54,0,0,1,1.47-.3,3.5,3.5,0,0,1,1.46.3,3.75,3.75,0,0,1,1.16.8,3.63,3.63,0,0,1,.76,1.18,3.77,3.77,0,0,1,.27,1.43v0a3.77,3.77,0,0,1-.27,1.43,3.71,3.71,0,0,1-1.94,2A3.56,3.56,0,0,1,327.69,205.17Zm0-.66a2.82,2.82,0,0,0,1.17-.24,2.89,2.89,0,0,0,.93-0.65,3,3,0,0,0,.61-1,3.24,3.24,0,0,0,.22-1.18v0a3.24,3.24,0,0,0-.22-1.21,3,3,0,0,0-.63-1,2.9,2.9,0,0,0-.94-0.66,3,3,0,0,0-2.34,0,2.9,2.9,0,0,0-.93.66,3,3,0,0,0-.6,1,3.22,3.22,0,0,0-.22,1.18v0a3.24,3.24,0,0,0,.22,1.21,3,3,0,0,0,.63,1,2.92,2.92,0,0,0,.94.66A2.87,2.87,0,0,0,327.72,204.51Z" transform="translate(-112.12 -84.18)"/><path class="cls-1" d="M336.65,205.17a3.51,3.51,0,0,1-1.46-.3,3.75,3.75,0,0,1-1.16-.81,3.62,3.62,0,0,1-.76-1.18,3.76,3.76,0,0,1-.27-1.43v0a3.76,3.76,0,0,1,.27-1.43,3.71,3.71,0,0,1,1.94-2,3.54,3.54,0,0,1,1.47-.3,3.5,3.5,0,0,1,1.46.3,3.75,3.75,0,0,1,1.16.8,3.63,3.63,0,0,1,.76,1.18,3.77,3.77,0,0,1,.27,1.43v0a3.77,3.77,0,0,1-.27,1.43,3.71,3.71,0,0,1-1.94,2A3.56,3.56,0,0,1,336.65,205.17Zm0-.66a2.82,2.82,0,0,0,1.17-.24,2.89,2.89,0,0,0,.93-0.65,3,3,0,0,0,.61-1,3.24,3.24,0,0,0,.22-1.18v0a3.24,3.24,0,0,0-.22-1.21,3,3,0,0,0-.63-1,2.9,2.9,0,0,0-.94-0.66,3,3,0,0,0-2.34,0,2.9,2.9,0,0,0-.93.66,3,3,0,0,0-.6,1,3.22,3.22,0,0,0-.22,1.18v0a3.24,3.24,0,0,0,.22,1.21,3,3,0,0,0,.63,1,2.92,2.92,0,0,0,.94.66A2.87,2.87,0,0,0,336.68,204.51Z" transform="translate(-112.12 -84.18)"/><path class="cls-1" d="M342.54,194.78h0.69V205h-0.69V194.78Z" transform="translate(-112.12 -84.18)"/></svg>